# xmcd
#
# Track frame offsets:
#	150
#	15005
#	27650
#	46752
#	59888
#	72599
#	90886
#	105338
#	117801
#	133062
#	148381
#	160441
#	179113
#	197047
#	213381
#	227838
#	243268
#	260057
#	275746
#	289976
#	303732
#	317185
#	329858
#	341565
#
# Disc length: 4777 seconds
#
# Revision: 1
# Processed by: cddbd v1.5.1PL0 Copyright (c) Steve Scherf et al.
# Submitted via: audiograbber 1.80
#
DISCID=8412a718
DTITLE=Various Artist - Eesti Wärk
DYEAR=1900
DGENRE=
TTITLE0=PS troika - Alkoholisõltlane
TTITLE1=Jüri Homenja - Tiivad
TTITLE2=Rein Laaneorg - Armastuslaul
TTITLE3=Allan Roosileht and Super Boys - Pumpsvalleraa
TTITLE4=Üllar Jörberg - Kaasaegne tüdruk
TTITLE5=Oleg Sõlg - Kolm blondiini
TTITLE6=Tarmo Pihlap - Amarillo
TTITLE7=N - Euro
TTITLE8=Hovery Covery - Võõra linna tuled
TTITLE9=Mati Nuude - Viva sampanja
TTITLE10=Erich Krieger - Kukununnu laul
TTITLE11=Meie Mees - Settekaevu sultan (DJ X mix)
TTITLE12=Pasadena - Sõbraga soojale maale
TTITLE13=Anne Veski - Ei ole süüdi ma
TTITLE14=Suveniir Feat. DJ X - Mandoliinid öös
TTITLE15=Allan Sarri - Vana jõgi
TTITLE16=Seelikukütid - Robert (Hovery remix)
TTITLE17=Ilmar Haukanõmm - Magus hetk
TTITLE18=Armin - Kui palju on vaja
TTITLE19=PO and PK - Viimne ratsu (radio edit 2002)
TTITLE20=Uno kaupmees - Julge sõber
TTITLE21=Mait Maltis - Mari-Eliisa
TTITLE22=Orukas and The Dance Band - Elektrik avenüü
TTITLE23=Kuldne Trio - Ehma, lehma
EXTD=
EXTT0=
EXTT1=
EXTT2=
EXTT3=
EXTT4=
EXTT5=
EXTT6=
EXTT7=
EXTT8=
EXTT9=
EXTT10=
EXTT11=
EXTT12=
EXTT13=
EXTT14=
EXTT15=
EXTT16=
EXTT17=
EXTT18=
EXTT19=
EXTT20=
EXTT21=
EXTT22=
EXTT23=
PLAYORDER=
